<?xml version="1.0" encoding="utf-8"?>
<!-- Generator: Adobe Illustrator 18.0.0, SVG Export Plug-In . SVG Version: 6.00 Build 0)  -->
<!DOCTYPE svg PUBLIC "-//W3C//DTD SVG 1.1//EN" "http://www.w3.org/Graphics/SVG/1.1/DTD/svg11.dtd">
<svg version="1.1" id="Layer_1" xmlns="http://www.w3.org/2000/svg" xmlns:xlink="http://www.w3.org/1999/xlink" x="0px" y="0px"
	 viewBox="0 0 160 160" enable-background="new 0 0 160 160" xml:space="preserve">
<path fill="#FCC097" d="M150.4,70.5c-0.5,4.6-1.5,9.1-2.9,13.5c-3,9-8.3,17.4-15.8,22.8c-4.4,3.2-9.5,5.3-14.5,7.3
	c-3.8,1.5-20.7,4.3-25.2,3.6c-5.5-0.8-11.2-2.4-14.9-6.6c-4.2-4.6-5-11.4-4.9-17.8c2.8,0.4,5.8,0.5,8.6,0.7c0.5,0,1,0,1.5-0.1
	c7.1,4.7,15.6,7.4,24.7,7.4C126.7,101.4,143.6,88.6,150.4,70.5z"/>
<path fill="#FFA364" d="M153.6,52.9c0,6.2-1.1,12.1-3.2,17.6c-6.8,18.1-23.7,30.9-43.4,30.9c-9.1,0-17.5-2.7-24.7-7.4
	c-0.5,0.1-1,0.1-1.5,0.1c-2.9-0.1-5.8-0.3-8.6-0.7c-4.5-0.6-8.8-1.7-12.4-4.2c-1.5-1-5-5.2-3.7-6c2.5-1.5,9-4,10.4-6.7
	c-3.8-7-5.9-15.1-5.9-23.8c0.1-26.8,20.9-48.5,46.6-48.4C132.8,4.3,153.6,26.1,153.6,52.9z"/>
<path fill="#CAEAE7" d="M83.6,146.3c-3.8,4.2-9.5,5.7-14.9,6.6c-4.5,0.7-21.5-2.1-25.2-3.6c-5-2.1-10.1-4.1-14.5-7.3
	c-7.5-5.4-12.8-13.8-15.8-22.8c-1.6-4.8-2.5-9.7-3-14.8c6.7,18.1,23.6,31,43.3,31c9.1,0,17.5-2.7,24.7-7.4c0.5,0.1,1,0.1,1.5,0.1
	c2.9-0.1,5.9-0.3,8.8-0.7C88.6,134.2,88,141.4,83.6,146.3z"/>
<path fill="#A7DBD8" d="M100.7,124.3c-3.5,2.4-7.8,3.5-12.3,4.1c-2.9,0.4-5.9,0.6-8.8,0.7c-0.5,0-1,0-1.5-0.1
	c-7.1,4.7-15.6,7.4-24.7,7.4c-19.7,0-36.6-12.8-43.3-31C8.1,99.9,7,94,7,87.8C7,61,27.8,39.3,53.4,39.3c25.7,0,46.5,21.7,46.5,48.5
	c0,8.6-2.2,16.7-5.9,23.8c1.4,2.7,7.9,5.1,10.4,6.7C105.7,119.1,102.2,123.2,100.7,124.3z"/>
<path fill="#BCBEC0" d="M102.2,117.1c-4.3,0.6-8.3,0.9-10.2,0.6c-5.5-0.8-11.2-2.4-14.9-6.6c-4.2-4.6-5-11.3-4.9-17.8
	c2.8,0.4,5.8,0.5,8.6,0.7c0.5,0,1,0,1.5-0.1c4.8,3.2,10.2,5.4,16,6.6c-1,3.9-2.5,7.6-4.3,11.1C95,113.7,99.2,115.6,102.2,117.1z"/>
<path fill="#B0937A" d="M99.9,87.8c0,4-0.5,8-1.4,11.7c-0.1,0.3-0.2,0.7-0.2,1c-5.8-1.1-11.2-3.4-16-6.6c-0.5,0.1-1,0.1-1.5,0.1
	c-2.9-0.1-5.8-0.3-8.6-0.7c-4.5-0.6-8.8-1.7-12.4-4.1c-1.6-1.1-5-5.2-3.7-6c2.5-1.6,9-4,10.4-6.7c-3.8-7-5.9-15.1-5.9-23.8
	c0-4.4,0.6-8.6,1.6-12.6C83.7,44.4,99.9,64.1,99.9,87.8z"/>
<path fill="#BDAC9D" d="M102.2,117.1c-4.3,0.6-8.3,0.9-10.2,0.6c-5.5-0.8-11.2-2.4-14.9-6.6c-4.2-4.6-5-11.3-4.9-17.8
	c2.8,0.4,5.8,0.5,8.6,0.7c0.5,0,1,0,1.5-0.1c4.8,3.2,10.2,5.4,16,6.6c-1,3.9-2.5,7.6-4.3,11.1C95,113.7,99.2,115.6,102.2,117.1z"/>
</svg>
